<svg xmlns="http://www.w3.org/2000/svg" width="108.364" height="108.364" viewBox="0 0 108.364 108.364"><path d="M54.182 0C24.258 0 0 24.258 0 54.182c0 29.924 24.258 54.183 54.182 54.183 29.923 0 54.182-24.259 54.182-54.183S84.105 0 54.182 0zm9.714 35.173c.729-1 1.685-1.551 2.691-1.551 1 0 1.942.437 2.625 1.173.684-.736 1.627-1.173 2.627-1.173 1.006 0 1.961.551 2.688 1.551.637.874 1.002 1.963 1.002 2.988 0 1.628-1.006 3.473-2.991 5.485a23.59 23.59 0 0 1-2.87 2.466.786.786 0 0 1-.9.007c-.24-.164-5.873-4.068-5.873-7.958 0-1.025.365-2.114 1.001-2.988zm-28.118 0c.729-1 1.684-1.551 2.691-1.551 1 0 1.942.437 2.625 1.173.684-.736 1.626-1.173 2.626-1.173 1.006 0 1.961.551 2.688 1.551.637.874 1.002 1.963 1.002 2.988 0 1.628-1.006 3.473-2.991 5.485a23.59 23.59 0 0 1-2.87 2.466.786.786 0 0 1-.901.007c-.24-.164-5.872-4.068-5.872-7.958 0-1.025.365-2.114 1.002-2.988zM77.67 65.221C73.827 74.107 64.827 79.85 54.742 79.85c-10.301 0-19.354-5.771-23.064-14.703a2.998 2.998 0 0 1 2.769-4.15c1.176 0 2.292.695 2.771 1.85 2.776 6.686 9.655 11.004 17.523 11.004 7.69 0 14.528-4.321 17.421-11.01a2.998 2.998 0 0 1 3.943-1.564 2.998 2.998 0 0 1 1.565 3.944z"/></svg>