<svg xmlns="http://www.w3.org/2000/svg" width="108.364" height="108.364" viewBox="0 0 108.364 108.364"><path d="M54.182 0C24.258 0 0 24.258 0 54.182c0 29.924 24.258 54.183 54.182 54.183 29.923 0 54.182-24.259 54.182-54.183S84.105 0 54.182 0zM40.594 33.621a6.202 6.202 0 1 1-.003 12.403 6.202 6.202 0 0 1 .003-12.403zM54.242 79.85c-9.08 4.867-19.354-5.771-23.064-14.703a3.001 3.001 0 0 1 2.77-4.151 3 3 0 0 1 2.771 1.853c2.777 6.684 7.463 7.92 18.523 10.004 0-.003 9.19 1.536-1 6.997zm14.471-33.824a6.205 6.205 0 0 1-6.203-6.203 6.202 6.202 0 1 1 6.203 6.203z"/></svg>