<svg xmlns="http://www.w3.org/2000/svg" viewBox="0 0 108.364 108.364"><path d="M54.182 0C24.258 0 0 24.258 0 54.182c0 29.924 24.258 54.183 54.182 54.183 29.923 0 54.182-24.259 54.182-54.183S84.105 0 54.182 0zM29.335 32.498a1.989 1.989 0 0 1 2.125-1.863c.087.006 8.679.498 11.91-3.958a2 2 0 1 1 3.238 2.348c-3.717 5.125-11.401 5.632-14.292 5.632-.636 0-1.039-.024-1.119-.03a2.001 2.001 0 0 1-1.862-2.129zm17.461 9.324a6.175 6.175 0 0 1-1.11 3.537 6.186 6.186 0 0 0-10.101.105 6.17 6.17 0 0 1-1.189-3.643c0-3.424 2.777-6.201 6.2-6.201s6.2 2.778 6.2 6.202zm-16.047 15.13c.001-3.436 4.555-7.535 4.555-7.535.438 2.747 1.52 4.344 1.52 4.344 1.218 1.818 1.218 3.508 1.218 3.508 0 3.711-3.693 3.678-3.693 3.678-3.6-.001-3.6-3.995-3.6-3.995zm45.858 22.146a2.997 2.997 0 0 1-3.944-1.562c-2.894-6.689-9.731-11.012-17.421-11.012-7.868 0-14.747 4.32-17.523 11.005a3.005 3.005 0 0 1-3.921 1.621 3.002 3.002 0 0 1-1.62-3.922c3.71-8.932 12.764-14.703 23.064-14.703 10.084 0 19.084 5.742 22.928 14.63a3 3 0 0 1-1.563 3.943zM62.525 41.785a6.2 6.2 0 1 1 12.4 0 6.175 6.175 0 0 1-1.189 3.643 6.188 6.188 0 0 0-10.102-.105 6.195 6.195 0 0 1-1.109-3.538zm15.598-7.196c-.08.006-.482.03-1.119.03-2.892 0-10.576-.507-14.292-5.632a2.001 2.001 0 0 1 3.238-2.348c3.231 4.456 11.823 3.964 11.91 3.958a1.99 1.99 0 0 1 2.125 1.863 1.999 1.999 0 0 1-1.862 2.129z"/></svg>