<svg xmlns="http://www.w3.org/2000/svg" width="108.364" height="108.364" viewBox="0 0 108.364 108.364"><path d="M54.182 0C24.258 0 0 24.258 0 54.182c0 29.924 24.258 54.183 54.182 54.183 29.923 0 54.182-24.259 54.182-54.183S84.105 0 54.182 0zm8.19 44.193l7.694-9.755c.158-.197.393-.308.646-.308s.486.111.642.304l7.697 9.757a.84.84 0 0 1 .1.859.822.822 0 0 1-.741.467h-3.554a.586.586 0 0 1-.463-.225l-3.681-4.664-3.681 4.664a.59.59 0 0 1-.462.225h-3.552a.822.822 0 0 1-.82-.818.832.832 0 0 1 .175-.506zm-32.119 0l7.695-9.755c.158-.197.392-.308.645-.308s.486.111.641.304l7.697 9.757c.189.237.229.58.1.859a.822.822 0 0 1-.741.467h-3.554a.59.59 0 0 1-.463-.225l-3.68-4.664-3.681 4.664a.59.59 0 0 1-.462.225h-3.552a.822.822 0 0 1-.82-.818.82.82 0 0 1 .175-.506zm50.065 19.381C76.033 73.479 66 79.878 54.755 79.878c-11.486 0-21.58-6.431-25.714-16.382a1.434 1.434 0 0 1 1.323-1.985h.002l48.638.061a1.433 1.433 0 0 1 1.314 2.002z"/></svg>