<svg xmlns="http://www.w3.org/2000/svg" viewBox="0 0 108.364 108.364"><path d="M54.182 0C24.258 0 0 24.258 0 54.182c0 29.924 24.258 54.183 54.182 54.183 29.923 0 54.182-24.259 54.182-54.183S84.105 0 54.182 0zm6.664 37.9a.705.705 0 0 1 .561-.472l4.604-.703 2.065-4.4a.703.703 0 0 1 1.275 0l2.064 4.4 4.604.703a.7.7 0 1 1 .398 1.186l-3.353 3.438.793 4.857a.7.7 0 0 1-.693.816.708.708 0 0 1-.34-.087l-4.11-2.271-4.108 2.271a.702.702 0 1 1-1.033-.729l.791-4.857-3.352-3.437a.699.699 0 0 1-.166-.715zm-28.119 0a.705.705 0 0 1 .561-.472l4.604-.703 2.065-4.4a.703.703 0 0 1 1.274 0l2.065 4.4 4.604.703c.26.04.477.222.561.472s.021.525-.164.714l-3.352 3.437.794 4.857a.702.702 0 0 1-1.034.729l-4.11-2.271-4.108 2.271a.704.704 0 0 1-1.034-.729l.791-4.857-3.351-3.437a.696.696 0 0 1-.166-.714zm47.089 25.674c-4.284 9.904-14.317 16.304-25.562 16.304-11.486 0-21.58-6.431-25.714-16.382a1.434 1.434 0 0 1 1.323-1.985h.002l48.638.061a1.431 1.431 0 0 1 1.313 2.002z"/></svg>