<?xml version="1.0" encoding="iso-8859-1"?>
<!-- Generator: Adobe Illustrator 16.0.0, SVG Export Plug-In . SVG Version: 6.00 Build 0)  -->
<!DOCTYPE svg PUBLIC "-//W3C//DTD SVG 1.1//EN" "http://www.w3.org/Graphics/SVG/1.1/DTD/svg11.dtd">
<svg version="1.1" id="Capa_1" xmlns="http://www.w3.org/2000/svg" xmlns:xlink="http://www.w3.org/1999/xlink" x="0px" y="0px"
	 width="108.364px" height="108.364px" viewBox="0 0 108.364 108.364" style="enable-background:new 0 0 108.364 108.364;"
	 xml:space="preserve">
<g>
	<g>
		<path d="M54.182,0C24.258,0,0,24.258,0,54.182c0,29.924,24.258,54.183,54.182,54.183c29.923,0,54.182-24.259,54.182-54.183
			C108.364,24.258,84.105,0,54.182,0z M63.896,35.173c0.729-1,1.685-1.551,2.691-1.551c1,0,1.942,0.437,2.625,1.173
			c0.684-0.736,1.627-1.173,2.627-1.173c1.006,0,1.961,0.551,2.688,1.551c0.637,0.874,1.002,1.963,1.002,2.988
			c0,1.628-1.006,3.473-2.991,5.485c-1.414,1.434-2.812,2.425-2.87,2.466c-0.137,0.097-0.296,0.145-0.455,0.145
			c-0.156,0-0.312-0.046-0.445-0.138c-0.24-0.164-5.873-4.068-5.873-7.958C62.895,37.136,63.26,36.047,63.896,35.173z
			 M35.778,35.173c0.729-1,1.684-1.551,2.691-1.551c1,0,1.942,0.437,2.625,1.173c0.684-0.736,1.626-1.173,2.626-1.173
			c1.006,0,1.961,0.551,2.688,1.551c0.637,0.874,1.002,1.963,1.002,2.988c0,1.628-1.006,3.473-2.991,5.485
			c-1.414,1.434-2.812,2.425-2.87,2.466c-0.137,0.097-0.296,0.145-0.455,0.145c-0.156,0-0.313-0.046-0.446-0.138
			c-0.24-0.164-5.872-4.068-5.872-7.958C34.776,37.136,35.141,36.047,35.778,35.173z M77.67,65.221
			C73.827,74.107,64.827,79.85,54.742,79.85c-10.301,0-19.354-5.771-23.064-14.703c-0.636-1.529,0.089-3.285,1.62-3.92
			c0.376-0.156,0.766-0.23,1.149-0.23c1.176,0,2.292,0.695,2.771,1.85c2.776,6.686,9.655,11.004,17.523,11.004
			c7.69,0,14.528-4.321,17.421-11.01c0.658-1.521,2.424-2.223,3.943-1.564C77.628,61.934,78.328,63.7,77.67,65.221z"/>
	</g>
</g>
<g>
</g>
<g>
</g>
<g>
</g>
<g>
</g>
<g>
</g>
<g>
</g>
<g>
</g>
<g>
</g>
<g>
</g>
<g>
</g>
<g>
</g>
<g>
</g>
<g>
</g>
<g>
</g>
<g>
</g>
</svg>
