<?xml version="1.0" encoding="iso-8859-1"?>
<!-- Generator: Adobe Illustrator 16.0.0, SVG Export Plug-In . SVG Version: 6.00 Build 0)  -->
<!DOCTYPE svg PUBLIC "-//W3C//DTD SVG 1.1//EN" "http://www.w3.org/Graphics/SVG/1.1/DTD/svg11.dtd">
<svg version="1.1" id="Capa_1" xmlns="http://www.w3.org/2000/svg" xmlns:xlink="http://www.w3.org/1999/xlink" x="0px" y="0px"
	 width="108.364px" height="108.364px" viewBox="0 0 108.364 108.364" style="enable-background:new 0 0 108.364 108.364;"
	 xml:space="preserve">
<g>
	<g>
		<path d="M54.182,0C24.258,0,0,24.258,0,54.182c0,29.924,24.258,54.183,54.182,54.183c29.923,0,54.182-24.259,54.182-54.183
			C108.364,24.258,84.105,0,54.182,0z M40.594,33.621c3.423,0,6.2,2.777,6.2,6.201c0,3.426-2.777,6.203-6.2,6.203
			c-3.423,0-6.201-2.777-6.201-6.203C34.393,36.399,37.17,33.621,40.594,33.621z M54.242,79.85
			c-9.08,4.867-19.354-5.771-23.064-14.703c-0.636-1.528,0.089-3.284,1.62-3.922c0.376-0.155,0.766-0.229,1.15-0.229
			c1.176,0.002,2.292,0.696,2.771,1.853c2.777,6.684,7.463,7.92,18.523,10.004C55.242,72.85,64.432,74.389,54.242,79.85z
			 M68.713,46.026c-3.423,0-6.203-2.777-6.203-6.203c0-3.424,2.78-6.201,6.203-6.201c3.424,0,6.201,2.777,6.201,6.201
			C74.913,43.248,72.137,46.026,68.713,46.026z"/>
	</g>
</g>
<g>
</g>
<g>
</g>
<g>
</g>
<g>
</g>
<g>
</g>
<g>
</g>
<g>
</g>
<g>
</g>
<g>
</g>
<g>
</g>
<g>
</g>
<g>
</g>
<g>
</g>
<g>
</g>
<g>
</g>
</svg>
