<?xml version="1.0" encoding="iso-8859-1"?>
<!-- Generator: Adobe Illustrator 19.0.0, SVG Export Plug-In . SVG Version: 6.00 Build 0)  -->
<svg version="1.1" id="Capa_1" xmlns="http://www.w3.org/2000/svg" xmlns:xlink="http://www.w3.org/1999/xlink" x="0px" y="0px"
	 viewBox="0 0 489 489" style="enable-background:new 0 0 489 489;" xml:space="preserve">
<g>
	<g>
		<path d="M15,260.124h13.6v17.3c0,24.8,20.1,44.9,44.9,44.9H85l34.6,142.5c0.9,4.2,4.6,7.1,8.9,7.1h5h54.4h22.5c5.3,0,9.2-5,8-10.2
			l-7.4-30.5c-1.3-5.3-6-9-11.4-9c-13.2,0-24.7-9-27.9-21.7l-19.7-78.3h46.4v-18.7c54.6,8.9,144.9,32,207.8,91.7
			c0.7,11.1,10.5,19.8,22,18.4c10.1-1.2,17.4-10.5,17.4-20.7v-115.5c25.3-9.5,43.4-33.8,43.4-62.4s-18-52.9-43.4-62.4v-114.7
			c0-10.2-7.3-19.5-17.4-20.7c-11.6-1.4-21.4,7.3-22,18.4c-63,59.7-153.2,82.9-207.8,91.7v-18.7H73.6c-24.8,0-44.9,20.1-44.9,44.9
			v20H15c-8.3,0-15,6.7-15,15v56.3C0,253.324,6.7,260.124,15,260.124z"/>
	</g>
</g>
<g>
</g>
<g>
</g>
<g>
</g>
<g>
</g>
<g>
</g>
<g>
</g>
<g>
</g>
<g>
</g>
<g>
</g>
<g>
</g>
<g>
</g>
<g>
</g>
<g>
</g>
<g>
</g>
<g>
</g>
</svg>
